<?xml version="1.0" encoding="UTF-8" standalone="no"?>
<!-- Generator: Adobe Illustrator 16.0.4, SVG Export Plug-In . SVG Version: 6.00 Build 0)  -->

<svg
   xmlns:dc="http://purl.org/dc/elements/1.1/"
   xmlns:cc="http://creativecommons.org/ns#"
   xmlns:rdf="http://www.w3.org/1999/02/22-rdf-syntax-ns#"
   xmlns:svg="http://www.w3.org/2000/svg"
   xmlns="http://www.w3.org/2000/svg"
   xmlns:sodipodi="http://sodipodi.sourceforge.net/DTD/sodipodi-0.dtd"
   xmlns:inkscape="http://www.inkscape.org/namespaces/inkscape"
   version="1.1"
   id="Layer_1"
   x="0px"
   y="0px"
   width="25.841"
   height="36.532997"
   viewBox="0 0 25.841 36.532996"
   enable-background="new 0 0 146.355 47.955"
   xml:space="preserve"
   inkscape:version="0.48.3.1 r9886"
   sodipodi:docname="zenodo_z.svg"><metadata
     id="metadata15"><rdf:RDF><cc:Work
         rdf:about=""><dc:format>image/svg+xml</dc:format><dc:type
           rdf:resource="http://purl.org/dc/dcmitype/StillImage" /><dc:title /></cc:Work></rdf:RDF></metadata><defs
     id="defs13" /><sodipodi:namedview
     pagecolor="#ffffff"
     bordercolor="#666666"
     borderopacity="1"
     objecttolerance="10"
     gridtolerance="10"
     guidetolerance="10"
     inkscape:pageopacity="0"
     inkscape:pageshadow="2"
     inkscape:window-width="1063"
     inkscape:window-height="676"
     id="namedview11"
     showgrid="false"
     inkscape:zoom="1.0146562"
     inkscape:cx="-261.77954"
     inkscape:cy="162.20709"
     inkscape:window-x="75"
     inkscape:window-y="34"
     inkscape:window-maximized="0"
     inkscape:current-layer="g7"
     inkscape:snap-nodes="false"
     fit-margin-top="0"
     fit-margin-left="0"
     fit-margin-right="0"
     fit-margin-bottom="0" /><g
     id="g3"
     style="fill:#000000"
     transform="translate(0,-11.168002)"><g
       id="g5"
       style="fill:#000000"><g
         id="g7"
         style="fill:#000000"><path
           id="path9"
           style="fill:#000000"
           d="m 25.745344,15.055396 c -0.016,0 -0.211825,1.55406 -0.221223,1.56701 L 7.064,42.059 l 0,0.610781 c 7.124221,-0.04292 8.877637,-0.04267 16.806465,0.385066 1.772607,1.654065 2.718841,3.069427 -0.0015,4.646153 l -21.047,0 C 1.264,47.701 0,46.437 0,44.879 l 0,-1.841 c 0,-0.605 0.195,-1.195 0.557,-1.682 l 18.23,-24.546 -15.541,0 c -1.556,0 -2.82,-1.261 -2.82,-2.82 0,-1.557 1.263,-2.822 2.82,-2.822 l 19.775,0 c 1.558,0 2.82,1.490549 2.82,2.822"
           inkscape:connector-curvature="0"
           sodipodi:nodetypes="csccccsssccssssc" /></g></g></g></svg>